# xmcd CD database file
#
# Track frame offsets:
#	150
#	12112
#	44880
#	56895
#	66727
#	80647
#	99557
#	107180
#	116610
#	153402
#	174387
#	185235
#	199962
#
# Disc length: 2833 seconds
#
# Revision: 0
# Processed by: cddbd v1.5.2PL0 Copyright (c) Steve Scherf et al.
# Submitted via: CDex 1.70beta2
#
DISCID=c60b0f0d
DTITLE=Bob James - Rameau
DYEAR=1984
DGENRE=Jazz
TTITLE0=ファンファリネット
TTITLE1=ガヴォットと6つのドゥブル
TTITLE2=メヌエット
TTITLE3=ラ・リヴリ
TTITLE4=道化芝居
TTITLE5=内気な女
TTITLE6=軽はずみな女
TTITLE7=狩の歌
TTITLE8=ソローニュの愚か者
TTITLE9=ため息
TTITLE10=アフリカの奴隷のためのアリア
TTITLE11=三連音符
TTITLE12=タンブーラン
EXTD=YEAR: 1984
EXTT0=
EXTT1=
EXTT2=
EXTT3=
EXTT4=
EXTT5=
EXTT6=
EXTT7=
EXTT8=
EXTT9=
EXTT10=
EXTT11=
EXTT12=
PLAYORDER=
